<svg width="20" height="20" viewBox="0 0 68 68" fill="none" xmlns="http://www.w3.org/2000/svg">
<path d="M34 34C37.3815 34 40.6245 32.6567 43.0156 30.2656C45.4067 27.8745 46.75 24.6315 46.75 21.25C46.75 17.8685 45.4067 14.6255 43.0156 12.2344C40.6245 9.8433 37.3815 8.5 34 8.5C30.6185 8.5 27.3755 9.8433 24.9844 12.2344C22.5933 14.6255 21.25 17.8685 21.25 21.25C21.25 24.6315 22.5933 27.8745 24.9844 30.2656C27.3755 32.6567 30.6185 34 34 34ZM42.5 21.25C42.5 23.5043 41.6045 25.6663 40.0104 27.2604C38.4163 28.8545 36.2543 29.75 34 29.75C31.7457 29.75 29.5837 28.8545 27.9896 27.2604C26.3955 25.6663 25.5 23.5043 25.5 21.25C25.5 18.9957 26.3955 16.8337 27.9896 15.2396C29.5837 13.6455 31.7457 12.75 34 12.75C36.2543 12.75 38.4163 13.6455 40.0104 15.2396C41.6045 16.8337 42.5 18.9957 42.5 21.25ZM59.5 55.25C59.5 59.5 55.25 59.5 55.25 59.5H12.75C12.75 59.5 8.5 59.5 8.5 55.25C8.5 51 12.75 38.25 34 38.25C55.25 38.25 59.5 51 59.5 55.25ZM55.25 55.233C55.2458 54.1875 54.5955 51.0425 51.714 48.161C48.943 45.39 43.7282 42.5 34 42.5C24.2675 42.5 19.057 45.39 16.286 48.161C13.4045 51.0425 12.7585 54.1875 12.75 55.233H55.25Z" fill="black"/>
</svg>
